<svg width="512" height="512" viewBox="0 0 512 512" fill="none" xmlns="http://www.w3.org/2000/svg">
  <rect width="512" height="512" rx="112" fill="#131319"/>
  <rect x="34" y="34" width="444" height="444" rx="92" fill="#1D1D1D"/>
  <g transform="translate(109 129) scale(5.75)">
    <path d="M49.7554 25.043C50.3128 25.8235 50.1315 26.9083 49.3511 27.4658C48.5706 28.0232 47.4858 27.8429 46.9282 27.0625L46.6773 26.71C44.5206 36.5967 35.7175 43.9999 25.1841 44C18.2721 44 12.1041 40.81 8.07375 35.8291C7.47046 35.0835 7.58508 33.9901 8.33058 33.3867C9.07627 32.7834 10.1706 32.8988 10.7739 33.6445C14.1732 37.8453 19.3649 40.5264 25.1841 40.5264C34.1264 40.5263 41.5888 34.19 43.3277 25.7627L42.6333 26.2842C41.8662 26.8596 40.7774 26.7044 40.2017 25.9375C39.626 25.1705 39.7816 24.0818 40.5484 23.5059L45.8267 19.543L49.7554 25.043ZM33.1441 9.69727C36.0214 9.69755 38.3549 12.0308 38.355 14.9082C38.3549 16.0639 37.9771 17.131 37.3403 17.9951C38.7166 19.9696 39.5132 22.3343 39.5132 24.9385C39.5132 32.3742 37.1967 35.1708 25.0396 35.1709C12.8817 35.1709 10.5659 32.3744 10.5659 24.9385C10.566 22.3346 11.3608 19.9695 12.7368 17.9951C12.1002 17.1311 11.7232 16.0637 11.7232 14.9082C11.7233 12.0306 14.0565 9.69727 16.9341 9.69727C18.8964 9.6975 20.6052 10.783 21.4937 12.3857C22.628 12.1414 23.8166 12.0127 25.0396 12.0127C26.2624 12.0128 27.4503 12.1415 28.5845 12.3857C29.473 10.783 31.1818 9.69744 33.1441 9.69727ZM20.4077 20.1182C19.449 20.1184 18.6709 20.8958 18.6704 21.8545V25.3291C18.6707 26.288 19.4488 27.0652 20.4077 27.0654C21.3667 27.0653 22.1448 26.2881 22.145 25.3291V21.8555C22.1448 20.8965 21.3668 20.1183 20.4077 20.1182ZM24.4605 24.75C23.8214 24.7502 23.3027 25.2682 23.3023 25.9072C23.3023 26.5466 23.8212 27.0652 24.4605 27.0654H25.6187C26.2579 27.0651 26.7759 26.5465 26.7759 25.9072C26.7755 25.2683 26.2576 24.7503 25.6187 24.75H24.4605ZM29.6704 20.1182C28.7117 20.1186 27.9343 20.8967 27.9341 21.8555V25.3291C27.9343 26.2879 28.7117 27.065 29.6704 27.0654C30.6294 27.0653 31.4075 26.2881 31.4077 25.3291V21.8555C31.4075 20.8965 30.6295 20.1183 29.6704 20.1182ZM25.1841 0C32.7981 6.38875e-05 39.5078 3.8695 43.4546 9.74121C43.9897 10.5373 43.7781 11.6172 42.982 12.1523C42.1859 12.6871 41.1069 12.4755 40.5718 11.6797C37.2428 6.72688 31.593 3.4737 25.1841 3.47363C16.2419 3.47363 8.77966 9.80925 7.04054 18.2363L7.7339 17.7158C8.50094 17.1402 9.58965 17.2956 10.1655 18.0625C10.7413 18.8296 10.5859 19.9183 9.81886 20.4941L4.5591 24.4434L0.336443 18.6855C-0.230761 17.9121 -0.0638551 16.8251 0.70949 16.2578C1.48295 15.6906 2.56993 15.8575 3.13722 16.6309L3.67531 17.3643C5.80411 7.44047 14.6244 -4.61579e-07 25.1841 0Z" fill="#1AEFE5"/>
  </g>
</svg>
