<svg width="470" height="600" viewBox="0 0 470 600" fill="none" xmlns="http://www.w3.org/2000/svg">
<rect width="470" height="600" rx="40" fill="#FFFFFF"/>
<rect x="85" y="340" width="300" height="4" rx="2" fill="#D8CFEA"/>
<rect x="85" y="473" width="300" height="10" rx="2" fill="#FF8D7A"/>
<path d="M384.799 127.899L374.899 137.799L372.071 134.971L377.041 130H92.7578L97.7275 134.971L94.8994 137.799L85 127.899L94.8994 118L97.7275 120.828L92.5566 126H377.242L372.071 120.828L374.899 118L384.799 127.899Z" fill="#8F74E8"/>
<path d="M193.341 133.472L206.383 173.659L195.568 166.004C188.888 163.453 185.341 167.599 184.117 169.832C181.317 174.935 184.435 179.613 186.343 181.314L223.879 208.743C228.17 211.614 230.715 212.635 234.694 211.614L258.234 203.321C266.66 199.559 268.251 187.439 266.186 181.314L258.072 154.906C254.891 149.484 247.892 149.484 246.938 153.311C242.803 144.7 235.805 147.399 233.26 150.057C228.806 141.764 218.79 144.954 218.79 150.057L208.766 124.606C207.494 121.033 202.884 118.481 197.795 121.033C192.257 123.809 191.751 129.006 193.341 133.472Z" fill="#F8F2F7" stroke="#8F74E8" stroke-width="6" stroke-linejoin="round"/>
</svg>
