<svg width="400" height="600" viewBox="0 0 400 600" fill="none" xmlns="http://www.w3.org/2000/svg">
<rect width="400" height="600" rx="40" fill="#1D1D1D"/>
<rect x="50" y="340" width="300" height="4" fill="#4D4D4D"/>
<rect x="50" y="473" width="300" height="10" fill="#FF5100"/>
<path d="M349.799 127.899L339.899 137.799L337.071 134.971L342.041 130H57.7578L62.7275 134.971L59.8994 137.799L50 127.899L59.8994 118L62.7275 120.828L57.5566 126H342.242L337.071 120.828L339.899 118L349.799 127.899Z" fill="#3D858D"/>
<path d="M158.341 133.472L171.383 173.659L160.568 166.004C153.888 163.453 150.341 167.599 149.117 169.832C146.317 174.935 149.435 179.613 151.343 181.314L188.879 208.743C193.17 211.614 195.715 212.635 199.694 211.614L223.234 203.321C231.66 199.559 233.251 187.439 231.186 181.314L223.072 154.906C219.891 149.484 212.892 149.484 211.938 153.311C207.803 144.7 200.805 147.399 198.26 150.057C193.806 141.764 183.79 144.954 183.79 150.057L173.766 124.606C172.494 121.033 167.884 118.481 162.795 121.033C157.257 123.809 156.751 129.006 158.341 133.472Z" fill="#131319" stroke="#3D858D" stroke-width="6" stroke-linejoin="round"/>
</svg>
