<svg width="470" height="600" viewBox="0 0 470 600" fill="none" xmlns="http://www.w3.org/2000/svg">
<rect width="470" height="600" rx="40" fill="#1D1D1D"/>
<rect x="85" y="340" width="300" height="4" fill="#4D4D4D"/>
<rect x="85" y="473" width="300" height="10" fill="#FF5100"/>
<path d="M384.799 127.899L374.899 137.799L372.071 134.971L377.041 130H92.7578L97.7275 134.971L94.8994 137.799L85 127.899L94.8994 118L97.7275 120.828L92.5566 126H377.242L372.071 120.828L374.899 118L384.799 127.899Z" fill="#3D858D"/>
<path d="M193.341 133.472L206.383 173.659L195.568 166.004C188.888 163.453 185.341 167.599 184.117 169.832C181.317 174.935 184.435 179.613 186.343 181.314L223.879 208.743C228.17 211.614 230.715 212.635 234.694 211.614L258.234 203.321C266.66 199.559 268.251 187.439 266.186 181.314L258.072 154.906C254.891 149.484 247.892 149.484 246.938 153.311C242.803 144.7 235.805 147.399 233.26 150.057C228.806 141.764 218.79 144.954 218.79 150.057L208.766 124.606C207.494 121.033 202.884 118.481 197.795 121.033C192.257 123.809 191.751 129.006 193.341 133.472Z" fill="#131319" stroke="#3D858D" stroke-width="6" stroke-linejoin="round"/>
<g opacity="0.5" clip-path="url(#clip0_803_74)">
<path d="M32.9997 36.6666V32.9999M32.9997 29.3333H33.0088M42.1663 32.9999C42.1663 38.0625 38.0623 42.1666 32.9997 42.1666C27.9371 42.1666 23.833 38.0625 23.833 32.9999C23.833 27.9373 27.9371 23.8333 32.9997 23.8333C38.0623 23.8333 42.1663 27.9373 42.1663 32.9999Z" stroke="#4D4D4D" stroke-width="1.83333" stroke-linecap="round" stroke-linejoin="round"/>
</g>
<path d="M195.008 327.416H196.976V332.816H195.008V327.416ZM195.992 316.568C197.528 316.568 198.888 316.808 200.072 317.288C201.256 317.752 202.184 318.408 202.856 319.256C203.544 320.104 203.888 321.104 203.888 322.256C203.888 323.408 203.544 324.416 202.856 325.28C202.184 326.128 201.256 326.784 200.072 327.248C198.888 327.712 197.528 327.944 195.992 327.944C194.472 327.944 193.112 327.712 191.912 327.248C190.728 326.784 189.8 326.128 189.128 325.28C188.456 324.416 188.12 323.408 188.12 322.256C188.12 321.104 188.456 320.104 189.128 319.256C189.8 318.408 190.728 317.752 191.912 317.288C193.112 316.808 194.472 316.568 195.992 316.568ZM195.992 318.176C194.84 318.176 193.816 318.344 192.92 318.68C192.024 319.016 191.32 319.496 190.808 320.12C190.296 320.728 190.04 321.44 190.04 322.256C190.04 323.072 190.296 323.792 190.808 324.416C191.32 325.04 192.024 325.52 192.92 325.856C193.816 326.192 194.84 326.36 195.992 326.36C197.144 326.36 198.168 326.192 199.064 325.856C199.96 325.52 200.664 325.04 201.176 324.416C201.704 323.792 201.968 323.072 201.968 322.256C201.968 321.44 201.704 320.728 201.176 320.12C200.664 319.496 199.96 319.016 199.064 318.68C198.168 318.344 197.144 318.176 195.992 318.176ZM186.2 332.432H205.88V334.088H186.2V332.432ZM219.774 321.152H225.27V322.784H219.774V321.152ZM224.142 315.176H226.134V331.088H224.142V315.176ZM212.286 334.76H226.734V336.392H212.286V334.76ZM212.286 329.672H214.254V335.576H212.286V329.672ZM213.798 317.864H215.43V319.616C215.43 320.928 215.174 322.168 214.662 323.336C214.166 324.488 213.462 325.496 212.55 326.36C211.638 327.208 210.582 327.864 209.382 328.328L208.35 326.72C209.15 326.432 209.878 326.048 210.534 325.568C211.206 325.088 211.79 324.536 212.286 323.912C212.782 323.288 213.158 322.608 213.414 321.872C213.67 321.136 213.798 320.384 213.798 319.616V317.864ZM214.182 317.864H215.814V319.616C215.814 320.544 216.03 321.448 216.462 322.328C216.894 323.208 217.51 323.992 218.31 324.68C219.11 325.352 220.03 325.872 221.07 326.24L220.062 327.824C218.878 327.392 217.846 326.768 216.966 325.952C216.086 325.12 215.398 324.16 214.902 323.072C214.422 321.984 214.182 320.832 214.182 319.616V317.864ZM208.974 316.928H220.566V318.56H208.974V316.928ZM231.713 326.273C231.713 324.125 231.991 322.151 232.548 320.349C233.111 318.543 233.912 316.881 234.952 315.364H236.724C236.315 315.926 235.932 316.619 235.574 317.443C235.222 318.261 234.912 319.162 234.645 320.145C234.378 321.122 234.168 322.134 234.014 323.179C233.866 324.224 233.793 325.256 233.793 326.273C233.793 327.625 233.923 328.997 234.185 330.389C234.446 331.781 234.798 333.074 235.241 334.267C235.685 335.46 236.179 336.432 236.724 337.182H234.952C233.912 335.665 233.111 334.006 232.548 332.205C231.991 330.398 231.713 328.42 231.713 326.273ZM240.681 335H238.465L244.874 317.545H247.056L253.465 335H251.249L246.033 320.307H245.897L240.681 335ZM241.499 328.182H250.431V330.057H241.499V328.182ZM256.184 317.545H258.707L264.638 332.034H264.843L270.775 317.545H273.298V335H271.32V321.739H271.15L265.695 335H263.786L258.332 321.739H258.161V335H256.184V317.545ZM281.558 326.273C281.558 328.42 281.277 330.398 280.714 332.205C280.158 334.006 279.359 335.665 278.32 337.182H276.547C276.956 336.619 277.337 335.926 277.689 335.102C278.047 334.284 278.359 333.386 278.626 332.409C278.893 331.426 279.101 330.412 279.249 329.366C279.402 328.315 279.479 327.284 279.479 326.273C279.479 324.92 279.348 323.548 279.087 322.156C278.825 320.764 278.473 319.472 278.03 318.278C277.587 317.085 277.092 316.114 276.547 315.364H278.32C279.359 316.881 280.158 318.543 280.714 320.349C281.277 322.151 281.558 324.125 281.558 326.273Z" fill="#747474"/>
<path d="M195.008 361.416H196.976V366.816H195.008V361.416ZM195.992 350.568C197.528 350.568 198.888 350.808 200.072 351.288C201.256 351.752 202.184 352.408 202.856 353.256C203.544 354.104 203.888 355.104 203.888 356.256C203.888 357.408 203.544 358.416 202.856 359.28C202.184 360.128 201.256 360.784 200.072 361.248C198.888 361.712 197.528 361.944 195.992 361.944C194.472 361.944 193.112 361.712 191.912 361.248C190.728 360.784 189.8 360.128 189.128 359.28C188.456 358.416 188.12 357.408 188.12 356.256C188.12 355.104 188.456 354.104 189.128 353.256C189.8 352.408 190.728 351.752 191.912 351.288C193.112 350.808 194.472 350.568 195.992 350.568ZM195.992 352.176C194.84 352.176 193.816 352.344 192.92 352.68C192.024 353.016 191.32 353.496 190.808 354.12C190.296 354.728 190.04 355.44 190.04 356.256C190.04 357.072 190.296 357.792 190.808 358.416C191.32 359.04 192.024 359.52 192.92 359.856C193.816 360.192 194.84 360.36 195.992 360.36C197.144 360.36 198.168 360.192 199.064 359.856C199.96 359.52 200.664 359.04 201.176 358.416C201.704 357.792 201.968 357.072 201.968 356.256C201.968 355.44 201.704 354.728 201.176 354.12C200.664 353.496 199.96 353.016 199.064 352.68C198.168 352.344 197.144 352.176 195.992 352.176ZM186.2 366.432H205.88V368.088H186.2V366.432ZM209.31 351.624H226.758V353.256H209.31V351.624ZM208.278 363.24H227.958V364.872H208.278V363.24ZM217.086 364.56H219.054V370.896H217.086V364.56ZM218.07 354.504C220.278 354.504 222.006 354.816 223.254 355.44C224.502 356.064 225.126 356.96 225.126 358.128C225.126 359.264 224.502 360.152 223.254 360.792C222.006 361.416 220.278 361.728 218.07 361.728C215.862 361.728 214.134 361.416 212.886 360.792C211.638 360.152 211.014 359.264 211.014 358.128C211.014 356.96 211.638 356.064 212.886 355.44C214.134 354.816 215.862 354.504 218.07 354.504ZM218.07 356.016C216.486 356.016 215.254 356.2 214.374 356.568C213.51 356.92 213.078 357.44 213.078 358.128C213.078 358.784 213.51 359.296 214.374 359.664C215.254 360.032 216.486 360.216 218.07 360.216C219.654 360.216 220.878 360.032 221.742 359.664C222.622 359.296 223.062 358.784 223.062 358.128C223.062 357.44 222.622 356.92 221.742 356.568C220.878 356.2 219.654 356.016 218.07 356.016ZM217.086 349.032H219.054V352.704H217.086V349.032ZM231.713 360.273C231.713 358.125 231.991 356.151 232.548 354.349C233.111 352.543 233.912 350.881 234.952 349.364H236.724C236.315 349.926 235.932 350.619 235.574 351.443C235.222 352.261 234.912 353.162 234.645 354.145C234.378 355.122 234.168 356.134 234.014 357.179C233.866 358.224 233.793 359.256 233.793 360.273C233.793 361.625 233.923 362.997 234.185 364.389C234.446 365.781 234.798 367.074 235.241 368.267C235.685 369.46 236.179 370.432 236.724 371.182H234.952C233.912 369.665 233.111 368.006 232.548 366.205C231.991 364.398 231.713 362.42 231.713 360.273ZM239.965 369V351.545H245.863C247.232 351.545 248.352 351.793 249.221 352.287C250.096 352.776 250.744 353.438 251.164 354.273C251.585 355.108 251.795 356.04 251.795 357.068C251.795 358.097 251.585 359.031 251.164 359.872C250.749 360.713 250.107 361.384 249.238 361.884C248.369 362.378 247.255 362.625 245.897 362.625H241.67V360.75H245.829C246.766 360.75 247.519 360.588 248.087 360.264C248.656 359.94 249.067 359.503 249.323 358.952C249.585 358.395 249.715 357.767 249.715 357.068C249.715 356.369 249.585 355.744 249.323 355.193C249.067 354.642 248.653 354.21 248.079 353.898C247.505 353.58 246.744 353.42 245.795 353.42H242.079V369H239.965ZM255.2 351.545H257.722L263.654 366.034H263.859L269.79 351.545H272.313V369H270.336V355.739H270.165L264.711 369H262.802L257.347 355.739H257.177V369H255.2V351.545ZM280.574 360.273C280.574 362.42 280.293 364.398 279.73 366.205C279.173 368.006 278.375 369.665 277.335 371.182H275.562C275.972 370.619 276.352 369.926 276.705 369.102C277.063 368.284 277.375 367.386 277.642 366.409C277.909 365.426 278.116 364.412 278.264 363.366C278.418 362.315 278.494 361.284 278.494 360.273C278.494 358.92 278.364 357.548 278.102 356.156C277.841 354.764 277.489 353.472 277.045 352.278C276.602 351.085 276.108 350.114 275.562 349.364H277.335C278.375 350.881 279.173 352.543 279.73 354.349C280.293 356.151 280.574 358.125 280.574 360.273Z" fill="#747474"/>
<defs>
<clipPath id="clip0_803_74">
<rect width="22" height="22" fill="white" transform="translate(22 22)"/>
</clipPath>
</defs>
</svg>
